#N canvas 954 290 1302 709 12;
#X obj 26 29 tgl 60 0 empty empty empty 17 7 0 10 #fcfcfc #000000 #000000
0 1;
#X msg 26 94 \; pd dsp \$1;
#X text 8 7 Turn ON/OFF DSP;
#X text 140 6 Sub-patches \, contains the actual "coding" for sound.
DO NOT DELETE THESE;
#X obj 19 195 catch~ OUTPUT;
#X obj 101 407 dac~;
#X floatatom 141 319 5 0 0 0 - - - 0;
#X obj 102 368 *~;
#X text 15 168 VOLUME CONTROL;
#X floatatom 142 253 5 0 0 0 - - - 0;
#X obj 142 284 / 100;
#X text 182 254 <- Adjust this number;
#X obj 19 270 lop~ 100;
#X obj 20 233 hip~ 400;
#N canvas 460 269 1749 887 buttonSelect 0;
#X obj 795 666 phasor~;
#X obj 881 666 osc~;
#X obj 831 735 *~;
#X obj 834 950 throw~ OUTPUT;
#X obj 832 784 *~;
#X obj 531 264 metro;
#X obj 531 325 tgl 15 0 empty empty empty 17 7 0 10 #fcfcfc #000000
#000000 0 1;
#X msg 587 94 0;
#X obj 834 887 *~ 0.08;
#X obj 531 295 bng 15 250 50 0 empty empty empty 17 7 0 10 #fcfcfc
#000000 #000000;
#X obj 542 17 r buttonSelect;
#X obj 543 59 sel 1;
#X msg 531 95 400;
#X obj 437 112 delay 800;
#X obj 437 87 bng 15 250 50 0 empty empty empty 17 7 0 10 #fcfcfc #000000
#000000;
#X msg 437 141 0;
#X obj 832 842 hip~ 360;
#X obj 894 391 sel 0 1 2;
#X obj 742 392 sel 0 1 2;
#X msg 728 435 66;
#X msg 951 436 71;
#X floatatom 917 514 5 0 0 0 - - - 0;
#X floatatom 770 514 5 0 0 0 - - - 0;
#X msg 880 436 67;
#X msg 914 436 69;
#X msg 762 435 68;
#X msg 799 435 70;
#X obj 739 310 random 3;
#X obj 844 343 random 3;
#X msg 796 343 3;
#X msg 837 436 0;
#X obj 844 573 mtof;
#X floatatom 844 607 5 0 0 0 - - - 0;
#X obj 828 310 delay 200;
#X connect 0 0 2 0;
#X connect 1 0 2 1;
#X connect 2 0 4 0;
#X connect 4 0 16 0;
#X connect 5 0 9 0;
#X connect 6 0 4 1;
#X connect 7 0 6 0;
#X connect 7 0 5 0;
#X connect 8 0 3 0;
#X connect 9 0 6 0;
#X connect 9 0 27 0;
#X connect 9 0 33 0;
#X connect 10 0 11 0;
#X connect 11 0 12 0;
#X connect 11 0 14 0;
#X connect 11 1 7 0;
#X connect 12 0 5 0;
#X connect 12 0 5 1;
#X connect 13 0 15 0;
#X connect 14 0 13 0;
#X connect 15 0 6 0;
#X connect 15 0 5 0;
#X connect 16 0 8 0;
#X connect 17 0 23 0;
#X connect 17 1 24 0;
#X connect 17 2 20 0;
#X connect 17 3 30 0;
#X connect 18 0 19 0;
#X connect 18 1 25 0;
#X connect 18 2 26 0;
#X connect 18 3 30 0;
#X connect 19 0 22 0;
#X connect 20 0 21 0;
#X connect 21 0 31 0;
#X connect 22 0 31 0;
#X connect 23 0 21 0;
#X connect 24 0 21 0;
#X connect 25 0 22 0;
#X connect 26 0 22 0;
#X connect 27 0 18 0;
#X connect 28 0 17 0;
#X connect 29 0 18 0;
#X connect 30 0 22 0;
#X connect 30 0 21 0;
#X connect 31 0 32 0;
#X connect 32 0 1 0;
#X connect 32 0 0 0;
#X connect 33 0 29 0;
#X connect 33 0 28 0;
#X restore 142 44 pd buttonSelect;
#X obj 451 157 s buttonSelect;
#X obj 142 195 r buttonSelect;
#X msg 142 227 1500;
#N canvas 1086 221 1462 766 lapPass 1;
#X obj 155 69 bng 15 250 50 0 empty empty empty 17 7 0 10 #fcfcfc #000000
#000000;
#X msg 158 275 1;
#X obj 193 316 +;
#X floatatom 192 348 5 0 0 0 - - - 0;
#X obj 257 239 r currentNum;
#X msg 155 99 65;
#X obj 59 142 s currentNum;
#X floatatom 256 270 5 0 0 0 - - - 0;
#X obj 87 381 s currentNum;
#X msg 214 142 stop;
#X obj 158 241 metro 100;
#X obj 214 100 delay 600;
#X obj 192 394 mtof;
#X floatatom 192 428 5 0 0 0 - - - 0;
#X obj 153 487 phasor~;
#X obj 239 487 osc~;
#X obj 196 549 *~;
#X obj 195 594 *~;
#X obj 197 680 throw~ OUTPUT;
#X obj 196 632 hip~ 360;
#X obj 155 18 r lapPass;
#X obj 334 452 line~;
#X msg 415 366 0 300;
#X msg 330 372 0.1 600;
#X obj 436 298 delay 1200;
#X connect 0 0 5 0;
#X connect 0 0 11 0;
#X connect 0 0 24 0;
#X connect 0 0 23 0;
#X connect 1 0 2 0;
#X connect 2 0 3 0;
#X connect 3 0 8 0;
#X connect 3 0 12 0;
#X connect 4 0 7 0;
#X connect 5 0 6 0;
#X connect 5 0 10 0;
#X connect 7 0 2 1;
#X connect 9 0 10 0;
#X connect 10 0 1 0;
#X connect 11 0 9 0;
#X connect 12 0 13 0;
#X connect 13 0 14 0;
#X connect 13 0 15 0;
#X connect 14 0 16 0;
#X connect 15 0 16 1;
#X connect 16 0 17 0;
#X connect 17 0 19 0;
#X connect 19 0 18 0;
#X connect 20 0 0 0;
#X connect 21 0 17 1;
#X connect 22 0 21 0;
#X connect 23 0 21 0;
#X connect 24 0 22 0;
#X restore 142 91 pd lapPass;
#X obj 476 443 s lapPass;
#X obj 332 196 r lapPass;
#N canvas 32 32 517 720 checkpointPass 1;
#X obj 155 69 bng 15 250 50 0 empty empty empty 17 7 0 10 #fcfcfc #000000
#000000;
#X msg 158 275 1;
#X obj 193 316 +;
#X floatatom 192 348 5 0 0 0 - - - 0;
#X obj 257 239 r currentNum;
#X obj 59 142 s currentNum;
#X floatatom 256 270 5 0 0 0 - - - 0;
#X obj 87 381 s currentNum;
#X msg 214 142 stop;
#X obj 192 394 mtof;
#X floatatom 192 428 5 0 0 0 - - - 0;
#X obj 153 487 phasor~;
#X obj 239 487 osc~;
#X obj 196 549 *~;
#X obj 195 594 *~;
#X obj 197 680 throw~ OUTPUT;
#X obj 196 632 hip~ 360;
#X obj 155 18 r checkpointPass;
#X obj 158 241 metro 200;
#X obj 214 100 delay 400;
#X msg 59 99 71;
#X obj 327 497 line~;
#X msg 327 467 0.1 200;
#X msg 411 464 0 300;
#X obj 407 399 delay 400;
#X connect 0 0 20 0;
#X connect 0 0 18 0;
#X connect 0 0 19 0;
#X connect 0 0 22 0;
#X connect 0 0 24 0;
#X connect 1 0 2 0;
#X connect 2 0 3 0;
#X connect 3 0 7 0;
#X connect 3 0 9 0;
#X connect 4 0 6 0;
#X connect 6 0 2 1;
#X connect 8 0 18 0;
#X connect 9 0 10 0;
#X connect 10 0 11 0;
#X connect 10 0 12 0;
#X connect 11 0 13 0;
#X connect 12 0 13 1;
#X connect 13 0 14 0;
#X connect 14 0 16 0;
#X connect 16 0 15 0;
#X connect 17 0 0 0;
#X connect 18 0 1 0;
#X connect 19 0 8 0;
#X connect 20 0 5 0;
#X connect 21 0 14 1;
#X connect 22 0 21 0;
#X connect 23 0 21 0;
#X connect 24 0 23 0;
#X restore 142 67 pd checkpointPass;
#X msg 600 223 0;
#X obj 453 284 s checkpointPass;
#X obj 255 194 r lapPass;
#X text 581 244 Function to activate sound effect when you pass a checkpoint
\, any number activates it;
#X text 572 403 Function to activate sound effect when you complete
a lap \, any number activates it;
#X text 577 114 Function to activate button sound effect \, any non-zero
number will activate it. Randomized sound for button;
#X obj 415 374 r lapSound @hv_event;
#X obj 383 226 r checkPointSound @hv_event;
#X obj 341 79 r buttonSound @hv_event;
#X msg 556 81 1;
#X connect 0 0 1 0;
#X connect 4 0 13 0;
#X connect 6 0 7 1;
#X connect 7 0 5 0;
#X connect 7 0 5 1;
#X connect 9 0 10 0;
#X connect 10 0 6 0;
#X connect 12 0 7 0;
#X connect 13 0 12 0;
#X connect 16 0 17 0;
#X connect 17 0 9 0;
#X connect 20 0 17 0;
#X connect 22 0 23 0;
#X connect 24 0 17 0;
#X connect 28 0 19 0;
#X connect 29 0 23 0;
#X connect 30 0 15 0;
#X connect 31 0 15 0;
