#N canvas 106 20 1735 913 12;
#X msg 169 57 \; pd dsp \$1;
#X obj 169 18 tgl 15 0 empty empty empty 17 7 0 10 -262144 -1 -1 0
1;
#X obj 239 147 tgl 15 0 empty empty empty 17 7 0 10 -262144 -1 -1 0
1;
#X obj 239 191 f;
#X obj 281 190 + 1;
#X obj 181 349 bng 15 250 50 0 empty empty empty 17 7 0 10 -262144
-1 -1;
#X obj 181 305 mod 2;
#X floatatom 295 136 5 0 0 0 - - -;
#X obj 465 364 bng 15 250 50 0 empty empty empty 17 7 0 10 -262144
-1 -1;
#X obj 499 364 bng 15 250 50 0 empty empty empty 17 7 0 10 -262144
-1 -1;
#X text 90 348 metrnonome;
#X obj 76 472 vsl 15 128 0 1 0 0 empty empty empty 0 -9 0 10 -262144
-1 -1 4182 1;
#X floatatom 72 620 5 0 0 0 - - -;
#X obj 158 599 *~;
#X obj 239 167 metro;
#X msg 295 105 234;
#X obj 294 69 loadbang;
#X text 547 333 kick / snare;
#N canvas 712 148 725 733 Final 0;
#X obj 92 88 inlet;
#X obj 22 89 loadbang;
#X floatatom 95 160 5 0 0 0 - - -;
#X obj 95 188 mtof;
#X obj 50 231 phasor~;
#X obj 324 531 outlet~;
#X obj 95 377 *~;
#X obj 95 421 lop~;
#X floatatom 147 396 5 0 0 0 - - -;
#X obj 147 342 bng 15 250 50 0 empty empty empty 17 7 0 10 -262144
-1 -1;
#X obj 331 457 rev2~, f 18;
#X obj 152 103 bng 15 250 50 0 empty empty empty 17 7 0 10 -262144
-1 -1;
#X obj 341 266 vsl 15 128 0 100 0 0 empty empty empty 0 -9 0 10 -262144
-1 -1 12700 1;
#X floatatom 342 414 5 0 0 0 - - -;
#X obj 547 290 vsl 15 128 0 100 0 0 empty empty empty 0 -9 0 10 -262144
-1 -1 9100 1;
#X floatatom 548 438 5 0 0 0 - - -;
#X obj 469 258 vsl 15 128 0 24000 0 0 empty empty empty 0 -9 0 10 -262144
-1 -1 2300 1;
#X floatatom 470 406 5 0 0 0 - - -;
#X obj 389 260 vsl 15 128 0 100 0 0 empty empty empty 0 -9 0 10 -262144
-1 -1 6896 1;
#X floatatom 390 408 5 0 0 0 - - -;
#X obj 127 232 phasor~;
#X obj 134 198 * -1;
#X obj 89 266 +~;
#X msg 208 190 0;
#X msg 258 190 0.5;
#X obj 267 156 bng 15 250 50 0 empty empty empty 17 7 0 10 -262144
-1 -1;
#X obj 89 298 -~ 1;
#X text 584 365 attenuation amount;
#X text 443 202 attenuation freq.;
#X text 344 197 feedback amt.;
#X text 312 316 db;
#X text 190 364 lowpass freq;
#X msg 333 234 100;
#X msg 387 233 54.3;
#X msg 467 229 4346;
#X msg 546 255 71.65;
#X obj 409 259 inlet;
#X obj 492 252 inlet;
#X obj 568 279 inlet;
#X msg 22 113 31;
#X text 307 23 inlet 1 : midi freq;
#X obj 200 86 inlet;
#X text 307 46 inlet 2 : vline input;
#X text 307 67 inlet 3 : feedback 0-100;
#X text 307 85 inlet 4 : attenuation freq;
#X text 308 104 inlet 5 : attenuation amount;
#X text 39 10 Nicholas Pastoria;
#X obj 200 145 line~;
#X msg 147 363 900, f 5;
#X connect 0 0 2 0;
#X connect 0 0 11 0;
#X connect 1 0 39 0;
#X connect 1 0 24 0;
#X connect 1 0 23 0;
#X connect 1 0 32 0;
#X connect 1 0 33 0;
#X connect 1 0 34 0;
#X connect 1 0 35 0;
#X connect 1 0 9 0;
#X connect 2 0 3 0;
#X connect 3 0 4 0;
#X connect 3 0 21 0;
#X connect 4 0 22 0;
#X connect 6 0 7 0;
#X connect 7 0 10 0;
#X connect 8 0 7 1;
#X connect 9 0 48 0;
#X connect 10 0 5 0;
#X connect 10 2 5 0;
#X connect 12 0 13 0;
#X connect 13 0 10 1;
#X connect 14 0 15 0;
#X connect 15 0 10 4;
#X connect 16 0 17 0;
#X connect 17 0 10 3;
#X connect 18 0 19 0;
#X connect 19 0 10 2;
#X connect 20 0 22 1;
#X connect 21 0 20 0;
#X connect 22 0 26 0;
#X connect 23 0 4 1;
#X connect 24 0 20 1;
#X connect 25 0 24 0;
#X connect 25 0 23 0;
#X connect 26 0 6 0;
#X connect 32 0 12 0;
#X connect 33 0 18 0;
#X connect 34 0 16 0;
#X connect 35 0 14 0;
#X connect 36 0 18 0;
#X connect 37 0 16 0;
#X connect 38 0 14 0;
#X connect 39 0 2 0;
#X connect 41 0 47 0;
#X connect 47 0 6 1;
#X connect 48 0 8 0;
#X restore 155 506 pd Final Game Hihat;
#X floatatom 152 463 5 0 0 0 - - -;
#X obj 308 314 loadbang;
#X text 5 534 metro db;
#N canvas 923 95 450 464 Final 0;
#X obj 50 84 inlet;
#X obj 53 323 outlet~;
#X obj 49 179 osc~;
#X obj 49 134 mtof;
#X obj 52 222 *~;
#X text 196 29 Nicholas Pastoria;
#X obj 18 122 bng 15 250 50 0 empty empty empty 17 7 0 10 -262144 -1
-1;
#X obj 184 262 noise~;
#X obj 202 221 vline~;
#X obj 186 293 lop~;
#X obj 288 228 vsl 15 128 0 1 0 0 empty empty empty 0 -9 0 10 -262144
-1 -1 4889 1;
#X floatatom 261 370 5 0 0 0 - - -;
#X obj 187 323 *~;
#X floatatom 247 251 5 0 0 0 - - -;
#X obj 191 359 *~;
#X obj 54 281 +~;
#X msg 107 46 1 2 \, 0 50 2;
#X msg 192 187 1 2 \, 0 10 2;
#X msg 292 155 178;
#X msg 312 198 0.385;
#X msg 128 90 1 2;
#X msg 181 136 0 50;
#X obj 181 113 delay;
#X msg 181 91 2;
#X obj 126 154 line~;
#X text 234 71 vline replacement detour;
#X text 213 91 Delay after first instruction;
#X connect 0 0 3 0;
#X connect 0 0 6 0;
#X connect 0 0 17 0;
#X connect 0 0 18 0;
#X connect 0 0 19 0;
#X connect 0 0 20 0;
#X connect 2 0 4 0;
#X connect 3 0 2 0;
#X connect 4 0 15 0;
#X connect 7 0 9 0;
#X connect 8 0 12 1;
#X connect 9 0 12 0;
#X connect 10 0 11 0;
#X connect 11 0 14 1;
#X connect 12 0 14 0;
#X connect 13 0 9 1;
#X connect 14 0 15 1;
#X connect 15 0 1 0;
#X connect 17 0 8 0;
#X connect 18 0 13 0;
#X connect 19 0 10 0;
#X connect 20 0 24 0;
#X connect 20 0 23 0;
#X connect 21 0 24 0;
#X connect 22 0 21 0;
#X connect 23 0 22 0;
#X connect 24 0 4 1;
#X restore 403 434 pd Final Game Kick;
#X text 202 532 Not a Hihat;
#X text 207 548 is a synth;
#X floatatom 465 401 5 0 0 0 - - -;
#X obj 551 544 *~;
#X text 478 16 Nicholas Pastoria;
#X obj 634 463 vsl 15 128 0 1 0 0 empty empty empty 0 -9 0 10 -262144
-1 -1 3696 1;
#X floatatom 596 597 5 0 0 0 - - -;
#N canvas 215 134 666 355 Final 0;
#X text 326 22 Nicholas Pastoria;
#X obj 95 8 inlet;
#X obj 12 84 noise~;
#X obj 263 115 vsl 15 128 0 1 0 0 empty empty empty 0 -9 0 10 -262144
-1 -1 6350 1;
#X floatatom 236 257 5 0 0 0 - - -;
#X obj 162 210 *~;
#X obj 166 246 *~;
#X obj 126 278 outlet~;
#X msg 480 41 1 2 \, 0 30 2;
#X obj 23 174 bp~;
#X floatatom 29 114 5 0 0 0 - - -;
#X obj 28 143 mtof;
#X floatatom 68 165 5 0 0 0 - - -;
#X obj 69 23 vsl 15 128 0 10 0 0 empty empty empty 0 -9 0 10 -262144
-1 -1 0 1;
#X obj 107 103 bng 15 250 50 0 empty empty empty 17 7 0 10 -262144
-1 -1;
#X msg 108 134 1;
#X msg 29 50 90;
#X msg 273 58 0.5;
#X msg 151 56 1 2;
#X msg 224 111 0 30;
#X msg 225 60 2;
#X obj 225 84 delay;
#X obj 177 108 line~;
#X connect 1 0 14 0;
#X connect 1 0 16 0;
#X connect 1 0 17 0;
#X connect 1 0 18 0;
#X connect 2 0 9 0;
#X connect 3 0 4 0;
#X connect 4 0 6 1;
#X connect 5 0 6 0;
#X connect 6 0 7 0;
#X connect 9 0 5 0;
#X connect 10 0 11 0;
#X connect 11 0 9 1;
#X connect 12 0 9 2;
#X connect 13 0 12 0;
#X connect 14 0 15 0;
#X connect 15 0 12 0;
#X connect 16 0 10 0;
#X connect 17 0 3 0;
#X connect 18 0 22 0;
#X connect 18 0 20 0;
#X connect 19 0 22 0;
#X connect 20 0 21 0;
#X connect 21 0 19 0;
#X connect 22 0 5 1;
#X restore 541 431 pd Final Game Snare;
#X obj 464 302 mod 8;
#X obj 464 334 select 0 4;
#X msg 400 401 30;
#X obj 772 368 bng 15 250 50 0 empty empty empty 17 7 0 10 -262144
-1 -1;
#X obj 1118 575 vsl 15 128 0 1 0 0 empty empty empty 0 -9 0 10 -262144
-1 -1 8500 1;
#X floatatom 1069 706 5 0 0 0 - - -;
#X text 760 266 main voices;
#X text 21 304 8th notes at 128 bpm;
#X obj 772 298 mod 32;
#X text 478 34 Final Game Music Master;
#X obj 884 754 dac~;
#X obj 892 714 *~;
#X obj 928 755 dac~;
#X obj 936 715 *~;
#X obj 966 754 dac~;
#X obj 974 714 *~;
#X obj 1010 755 dac~;
#X obj 1018 715 *~;
#X floatatom 740 475 5 0 0 0 - - -;
#X floatatom 741 511 5 0 0 0 - - -;
#X floatatom 739 542 5 0 0 0 - - -;
#X floatatom 740 574 5 0 0 0 - - -;
#N canvas 854 196 752 695 Final 0;
#X obj 92 88 inlet;
#X obj 22 89 loadbang;
#X floatatom 95 160 5 0 0 0 - - -;
#X obj 95 188 mtof;
#X obj 50 231 phasor~;
#X obj 324 531 outlet~;
#X obj 95 377 *~;
#X obj 95 421 lop~;
#X floatatom 147 396 5 0 0 0 - - -;
#X obj 147 342 bng 15 250 50 0 empty empty empty 17 7 0 10 -262144
-1 -1;
#X obj 331 457 rev2~, f 18;
#X obj 152 103 bng 15 250 50 0 empty empty empty 17 7 0 10 -262144
-1 -1;
#X obj 341 266 vsl 15 128 0 100 0 0 empty empty empty 0 -9 0 10 -262144
-1 -1 12700 1;
#X floatatom 342 414 5 0 0 0 - - -;
#X obj 547 290 vsl 15 128 0 100 0 0 empty empty empty 0 -9 0 10 -262144
-1 -1 9100 1;
#X floatatom 548 438 5 0 0 0 - - -;
#X obj 469 258 vsl 15 128 0 24000 0 0 empty empty empty 0 -9 0 10 -262144
-1 -1 2300 1;
#X floatatom 470 406 5 0 0 0 - - -;
#X obj 389 260 vsl 15 128 0 100 0 0 empty empty empty 0 -9 0 10 -262144
-1 -1 6896 1;
#X floatatom 390 408 5 0 0 0 - - -;
#X obj 127 232 phasor~;
#X obj 134 198 * -1;
#X obj 89 266 +~;
#X msg 208 190 0;
#X msg 258 190 0.5;
#X obj 267 156 bng 15 250 50 0 empty empty empty 17 7 0 10 -262144
-1 -1;
#X obj 89 298 -~ 1;
#X msg 147 363 800, f 5;
#X text 584 365 attenuation amount;
#X text 443 202 attenuation freq.;
#X text 344 197 feedback amt.;
#X text 312 316 db;
#X text 190 364 lowpass freq;
#X msg 333 234 100;
#X msg 387 233 54.3;
#X msg 467 229 4346;
#X msg 546 255 71.65;
#X msg 22 113 31;
#X text 20 642 inlet 1 : midi freq;
#X obj 200 108 inlet;
#X text 39 10 Nicholas Pastoria;
#X text 20 665 inlet 2 : vline input 1;
#X obj 200 145 line~;
#X text 200 4 inlet 2 first line delay;
#X connect 0 0 2 0;
#X connect 0 0 11 0;
#X connect 1 0 37 0;
#X connect 1 0 24 0;
#X connect 1 0 23 0;
#X connect 1 0 33 0;
#X connect 1 0 34 0;
#X connect 1 0 35 0;
#X connect 1 0 36 0;
#X connect 1 0 27 0;
#X connect 2 0 3 0;
#X connect 3 0 4 0;
#X connect 3 0 21 0;
#X connect 4 0 22 0;
#X connect 6 0 7 0;
#X connect 7 0 10 0;
#X connect 8 0 7 1;
#X connect 9 0 27 0;
#X connect 10 0 5 0;
#X connect 10 2 5 0;
#X connect 12 0 13 0;
#X connect 13 0 10 1;
#X connect 14 0 15 0;
#X connect 15 0 10 4;
#X connect 16 0 17 0;
#X connect 17 0 10 3;
#X connect 18 0 19 0;
#X connect 19 0 10 2;
#X connect 20 0 22 1;
#X connect 21 0 20 0;
#X connect 22 0 26 0;
#X connect 23 0 4 1;
#X connect 24 0 20 1;
#X connect 25 0 24 0;
#X connect 25 0 23 0;
#X connect 26 0 6 0;
#X connect 27 0 8 0;
#X connect 33 0 12 0;
#X connect 34 0 18 0;
#X connect 35 0 16 0;
#X connect 36 0 14 0;
#X connect 37 0 2 0;
#X connect 39 0 42 0;
#X connect 42 0 6 1;
#X restore 791 479 pd Final Game Hihat;
#N canvas 989 135 725 709 Final 0;
#X obj 92 88 inlet;
#X obj 22 89 loadbang;
#X floatatom 95 160 5 0 0 0 - - -;
#X obj 95 188 mtof;
#X obj 50 231 phasor~;
#X obj 324 531 outlet~;
#X obj 95 377 *~;
#X obj 95 421 lop~;
#X floatatom 147 396 5 0 0 0 - - -;
#X obj 147 342 bng 15 250 50 0 empty empty empty 17 7 0 10 -262144
-1 -1;
#X obj 331 457 rev2~, f 18;
#X obj 152 103 bng 15 250 50 0 empty empty empty 17 7 0 10 -262144
-1 -1;
#X obj 341 266 vsl 15 128 0 100 0 0 empty empty empty 0 -9 0 10 -262144
-1 -1 12700 1;
#X floatatom 342 414 5 0 0 0 - - -;
#X obj 547 290 vsl 15 128 0 100 0 0 empty empty empty 0 -9 0 10 -262144
-1 -1 9100 1;
#X floatatom 548 438 5 0 0 0 - - -;
#X obj 469 258 vsl 15 128 0 24000 0 0 empty empty empty 0 -9 0 10 -262144
-1 -1 2300 1;
#X floatatom 470 406 5 0 0 0 - - -;
#X obj 389 260 vsl 15 128 0 100 0 0 empty empty empty 0 -9 0 10 -262144
-1 -1 6896 1;
#X floatatom 390 408 5 0 0 0 - - -;
#X obj 127 232 phasor~;
#X obj 134 198 * -1;
#X obj 89 266 +~;
#X msg 208 190 0;
#X msg 258 190 0.5;
#X obj 267 156 bng 15 250 50 0 empty empty empty 17 7 0 10 -262144
-1 -1;
#X obj 89 298 -~ 1;
#X msg 147 363 800, f 5;
#X text 584 365 attenuation amount;
#X text 443 202 attenuation freq.;
#X text 344 197 feedback amt.;
#X text 312 316 db;
#X text 190 364 lowpass freq;
#X msg 333 234 100;
#X msg 387 233 54.3;
#X msg 467 229 4346;
#X msg 546 255 71.65;
#X msg 22 113 31;
#X text 307 23 inlet 1 : midi freq;
#X obj 200 86 inlet;
#X text 307 46 inlet 2 : vline input;
#X text 307 67 inlet 3 : feedback 0-100;
#X text 307 85 inlet 4 : attenuation freq;
#X text 308 104 inlet 5 : attenuation amount;
#X text 39 10 Nicholas Pastoria;
#X obj 200 145 line~;
#X connect 0 0 2 0;
#X connect 0 0 11 0;
#X connect 1 0 37 0;
#X connect 1 0 24 0;
#X connect 1 0 23 0;
#X connect 1 0 33 0;
#X connect 1 0 34 0;
#X connect 1 0 35 0;
#X connect 1 0 36 0;
#X connect 2 0 3 0;
#X connect 3 0 4 0;
#X connect 3 0 21 0;
#X connect 4 0 22 0;
#X connect 6 0 7 0;
#X connect 7 0 10 0;
#X connect 8 0 7 1;
#X connect 9 0 27 0;
#X connect 10 0 5 0;
#X connect 10 2 5 0;
#X connect 12 0 13 0;
#X connect 13 0 10 1;
#X connect 14 0 15 0;
#X connect 15 0 10 4;
#X connect 16 0 17 0;
#X connect 17 0 10 3;
#X connect 18 0 19 0;
#X connect 19 0 10 2;
#X connect 20 0 22 1;
#X connect 21 0 20 0;
#X connect 22 0 26 0;
#X connect 23 0 4 1;
#X connect 24 0 20 1;
#X connect 25 0 24 0;
#X connect 25 0 23 0;
#X connect 26 0 6 0;
#X connect 27 0 8 0;
#X connect 33 0 12 0;
#X connect 34 0 18 0;
#X connect 35 0 16 0;
#X connect 36 0 14 0;
#X connect 37 0 2 0;
#X connect 39 0 45 0;
#X connect 45 0 6 1;
#X restore 792 510 pd Final Game Hihat;
#N canvas 1180 170 725 709 Final 0;
#X obj 92 88 inlet;
#X obj 22 89 loadbang;
#X floatatom 95 160 5 0 0 0 - - -;
#X obj 95 188 mtof;
#X obj 50 231 phasor~;
#X obj 324 531 outlet~;
#X obj 95 377 *~;
#X obj 95 421 lop~;
#X floatatom 147 396 5 0 0 0 - - -;
#X obj 147 342 bng 15 250 50 0 empty empty empty 17 7 0 10 -262144
-1 -1;
#X obj 331 457 rev2~, f 18;
#X obj 152 103 bng 15 250 50 0 empty empty empty 17 7 0 10 -262144
-1 -1;
#X obj 341 266 vsl 15 128 0 100 0 0 empty empty empty 0 -9 0 10 -262144
-1 -1 12700 1;
#X floatatom 342 414 5 0 0 0 - - -;
#X obj 547 290 vsl 15 128 0 100 0 0 empty empty empty 0 -9 0 10 -262144
-1 -1 9100 1;
#X floatatom 548 438 5 0 0 0 - - -;
#X obj 469 258 vsl 15 128 0 24000 0 0 empty empty empty 0 -9 0 10 -262144
-1 -1 2300 1;
#X floatatom 470 406 5 0 0 0 - - -;
#X obj 389 260 vsl 15 128 0 100 0 0 empty empty empty 0 -9 0 10 -262144
-1 -1 6896 1;
#X floatatom 390 408 5 0 0 0 - - -;
#X obj 127 232 phasor~;
#X obj 134 198 * -1;
#X obj 89 266 +~;
#X msg 208 190 0;
#X msg 258 190 0.5;
#X obj 267 156 bng 15 250 50 0 empty empty empty 17 7 0 10 -262144
-1 -1;
#X obj 89 298 -~ 1;
#X msg 147 363 800, f 5;
#X text 584 365 attenuation amount;
#X text 443 202 attenuation freq.;
#X text 344 197 feedback amt.;
#X text 312 316 db;
#X text 190 364 lowpass freq;
#X msg 333 234 100;
#X msg 387 233 54.3;
#X msg 467 229 4346;
#X msg 546 255 71.65;
#X msg 22 113 31;
#X text 307 23 inlet 1 : midi freq;
#X obj 200 86 inlet;
#X text 307 46 inlet 2 : vline input;
#X text 307 67 inlet 3 : feedback 0-100;
#X text 307 85 inlet 4 : attenuation freq;
#X text 308 104 inlet 5 : attenuation amount;
#X text 39 10 Nicholas Pastoria;
#X obj 200 145 line~;
#X connect 0 0 2 0;
#X connect 0 0 11 0;
#X connect 1 0 37 0;
#X connect 1 0 24 0;
#X connect 1 0 23 0;
#X connect 1 0 33 0;
#X connect 1 0 34 0;
#X connect 1 0 35 0;
#X connect 1 0 36 0;
#X connect 2 0 3 0;
#X connect 3 0 4 0;
#X connect 3 0 21 0;
#X connect 4 0 22 0;
#X connect 6 0 7 0;
#X connect 7 0 10 0;
#X connect 8 0 7 1;
#X connect 9 0 27 0;
#X connect 10 0 5 0;
#X connect 10 2 5 0;
#X connect 12 0 13 0;
#X connect 13 0 10 1;
#X connect 14 0 15 0;
#X connect 15 0 10 4;
#X connect 16 0 17 0;
#X connect 17 0 10 3;
#X connect 18 0 19 0;
#X connect 19 0 10 2;
#X connect 20 0 22 1;
#X connect 21 0 20 0;
#X connect 22 0 26 0;
#X connect 23 0 4 1;
#X connect 24 0 20 1;
#X connect 25 0 24 0;
#X connect 25 0 23 0;
#X connect 26 0 6 0;
#X connect 27 0 8 0;
#X connect 33 0 12 0;
#X connect 34 0 18 0;
#X connect 35 0 16 0;
#X connect 36 0 14 0;
#X connect 37 0 2 0;
#X connect 39 0 45 0;
#X connect 45 0 6 1;
#X restore 792 542 pd Final Game Hihat;
#N canvas 963 227 725 709 Final 0;
#X obj 92 88 inlet;
#X obj 22 89 loadbang;
#X floatatom 95 160 5 0 0 0 - - -;
#X obj 95 188 mtof;
#X obj 50 231 phasor~;
#X obj 324 531 outlet~;
#X obj 95 377 *~;
#X obj 95 421 lop~;
#X floatatom 147 396 5 0 0 0 - - -;
#X obj 147 342 bng 15 250 50 0 empty empty empty 17 7 0 10 -262144
-1 -1;
#X obj 331 457 rev2~, f 18;
#X obj 152 103 bng 15 250 50 0 empty empty empty 17 7 0 10 -262144
-1 -1;
#X obj 341 266 vsl 15 128 0 100 0 0 empty empty empty 0 -9 0 10 -262144
-1 -1 12700 1;
#X floatatom 342 414 5 0 0 0 - - -;
#X obj 547 290 vsl 15 128 0 100 0 0 empty empty empty 0 -9 0 10 -262144
-1 -1 9100 1;
#X floatatom 548 438 5 0 0 0 - - -;
#X obj 469 258 vsl 15 128 0 24000 0 0 empty empty empty 0 -9 0 10 -262144
-1 -1 2300 1;
#X floatatom 470 406 5 0 0 0 - - -;
#X obj 389 260 vsl 15 128 0 100 0 0 empty empty empty 0 -9 0 10 -262144
-1 -1 6896 1;
#X floatatom 390 408 5 0 0 0 - - -;
#X obj 127 232 phasor~;
#X obj 134 198 * -1;
#X obj 89 266 +~;
#X msg 208 190 0;
#X msg 258 190 0.5;
#X obj 267 156 bng 15 250 50 0 empty empty empty 17 7 0 10 -262144
-1 -1;
#X obj 89 298 -~ 1;
#X msg 147 363 800, f 5;
#X text 584 365 attenuation amount;
#X text 443 202 attenuation freq.;
#X text 344 197 feedback amt.;
#X text 312 316 db;
#X text 190 364 lowpass freq;
#X msg 333 234 100;
#X msg 387 233 54.3;
#X msg 467 229 4346;
#X msg 546 255 71.65;
#X msg 22 113 31;
#X text 307 23 inlet 1 : midi freq;
#X obj 200 86 inlet;
#X text 307 46 inlet 2 : vline input;
#X text 307 67 inlet 3 : feedback 0-100;
#X text 307 85 inlet 4 : attenuation freq;
#X text 308 104 inlet 5 : attenuation amount;
#X text 39 10 Nicholas Pastoria;
#X obj 200 145 line~;
#X connect 0 0 2 0;
#X connect 0 0 11 0;
#X connect 1 0 37 0;
#X connect 1 0 24 0;
#X connect 1 0 23 0;
#X connect 1 0 33 0;
#X connect 1 0 34 0;
#X connect 1 0 35 0;
#X connect 1 0 36 0;
#X connect 2 0 3 0;
#X connect 3 0 4 0;
#X connect 3 0 21 0;
#X connect 4 0 22 0;
#X connect 6 0 7 0;
#X connect 7 0 10 0;
#X connect 8 0 7 1;
#X connect 9 0 27 0;
#X connect 10 0 5 0;
#X connect 10 2 5 0;
#X connect 12 0 13 0;
#X connect 13 0 10 1;
#X connect 14 0 15 0;
#X connect 15 0 10 4;
#X connect 16 0 17 0;
#X connect 17 0 10 3;
#X connect 18 0 19 0;
#X connect 19 0 10 2;
#X connect 20 0 22 1;
#X connect 21 0 20 0;
#X connect 22 0 26 0;
#X connect 23 0 4 1;
#X connect 24 0 20 1;
#X connect 25 0 24 0;
#X connect 25 0 23 0;
#X connect 26 0 6 0;
#X connect 27 0 8 0;
#X connect 33 0 12 0;
#X connect 34 0 18 0;
#X connect 35 0 16 0;
#X connect 36 0 14 0;
#X connect 37 0 2 0;
#X connect 39 0 45 0;
#X connect 45 0 6 1;
#X restore 792 575 pd Final Game Hihat;
#X msg 705 576 48;
#X msg 704 544 52;
#X msg 702 512 55;
#X msg 703 474 59;
#X obj 691 443 loadbang;
#X text 797 425 1872 Total ms/bar;
#X obj 772 327 select 0 8 16 24;
#X floatatom 1002 479 5 0 0 0 - - -;
#X floatatom 1003 515 5 0 0 0 - - -;
#X floatatom 1001 546 5 0 0 0 - - -;
#X floatatom 1002 578 5 0 0 0 - - -;
#X msg 967 580 48;
#X msg 966 548 52;
#X obj 853 372 bng 15 250 50 0 empty empty empty 17 7 0 10 -262144
-1 -1;
#X msg 965 478 57;
#X msg 964 516 53;
#X msg 224 423 36;
#X obj 12 368 sin;
#X obj 12 402 *;
#X floatatom 61 412 5 0 0 0 - - -;
#X obj 13 447 +;
#X floatatom 119 414 5 0 0 0 - - -;
#X obj 11 338 / 4;
#X msg 59 380 0.04;
#X obj 157 560 *~;
#X obj 203 597 vsl 15 128 0 1 0 0 empty empty empty 0 -9 0 10 -262144
-1 -1 7600 1;
#X floatatom 203 735 5 0 0 0 - - -;
#X obj 1245 317 bng 15 250 50 0 empty empty empty 17 7 0 10 -262144
-1 -1;
#X obj 1469 523 vsl 15 128 0 1 0 0 empty empty empty 0 -9 0 10 -262144
-1 -1 12700 1;
#X floatatom 1399 605 5 0 0 0 - - -;
#X text 1204 173 main voices;
#X obj 1347 639 dac~;
#X obj 1352 602 *~;
#X floatatom 1199 468 5 0 0 0 - - -;
#X floatatom 1200 504 5 0 0 0 - - -;
#X floatatom 1198 535 5 0 0 0 - - -;
#X floatatom 1199 567 5 0 0 0 - - -;
#N canvas 1139 99 725 712 Final 0;
#X obj 92 88 inlet;
#X obj 22 89 loadbang;
#X floatatom 95 160 5 0 0 0 - - -;
#X obj 95 188 mtof;
#X obj 50 231 phasor~;
#X obj 324 531 outlet~;
#X obj 95 377 *~;
#X obj 95 421 lop~;
#X floatatom 147 396 5 0 0 0 - - -;
#X obj 147 342 bng 15 250 50 0 empty empty empty 17 7 0 10 -262144
-1 -1;
#X obj 331 457 rev2~, f 18;
#X obj 152 103 bng 15 250 50 0 empty empty empty 17 7 0 10 -262144
-1 -1;
#X obj 341 266 vsl 15 128 0 100 0 0 empty empty empty 0 -9 0 10 -262144
-1 -1 12700 1;
#X floatatom 342 414 5 0 0 0 - - -;
#X obj 547 290 vsl 15 128 0 100 0 0 empty empty empty 0 -9 0 10 -262144
-1 -1 9100 1;
#X floatatom 548 438 5 0 0 0 - - -;
#X obj 469 258 vsl 15 128 0 24000 0 0 empty empty empty 0 -9 0 10 -262144
-1 -1 2300 1;
#X floatatom 470 406 5 0 0 0 - - -;
#X obj 389 260 vsl 15 128 0 100 0 0 empty empty empty 0 -9 0 10 -262144
-1 -1 6896 1;
#X floatatom 390 408 5 0 0 0 - - -;
#X obj 127 232 phasor~;
#X obj 134 198 * -1;
#X obj 89 266 +~;
#X msg 208 190 0;
#X msg 258 190 0.5;
#X obj 267 156 bng 15 250 50 0 empty empty empty 17 7 0 10 -262144
-1 -1;
#X obj 89 298 -~ 1;
#X msg 147 363 800, f 5;
#X text 584 365 attenuation amount;
#X text 443 202 attenuation freq.;
#X text 344 197 feedback amt.;
#X text 312 316 db;
#X text 190 364 lowpass freq;
#X msg 333 234 100;
#X msg 387 233 54.3;
#X msg 467 229 4346;
#X msg 546 255 71.65;
#X msg 22 113 31;
#X text 307 23 inlet 1 : midi freq;
#X obj 200 86 inlet;
#X text 307 46 inlet 2 : vline input;
#X text 307 67 inlet 3 : feedback 0-100;
#X text 307 85 inlet 4 : attenuation freq;
#X text 308 104 inlet 5 : attenuation amount;
#X text 39 10 Nicholas Pastoria;
#X obj 200 138 line~;
#X connect 0 0 2 0;
#X connect 0 0 11 0;
#X connect 1 0 37 0;
#X connect 1 0 24 0;
#X connect 1 0 23 0;
#X connect 1 0 33 0;
#X connect 1 0 34 0;
#X connect 1 0 35 0;
#X connect 1 0 36 0;
#X connect 1 0 27 0;
#X connect 2 0 3 0;
#X connect 3 0 4 0;
#X connect 3 0 21 0;
#X connect 4 0 22 0;
#X connect 6 0 7 0;
#X connect 7 0 10 0;
#X connect 8 0 7 1;
#X connect 9 0 27 0;
#X connect 10 0 5 0;
#X connect 10 2 5 0;
#X connect 12 0 13 0;
#X connect 13 0 10 1;
#X connect 14 0 15 0;
#X connect 15 0 10 4;
#X connect 16 0 17 0;
#X connect 17 0 10 3;
#X connect 18 0 19 0;
#X connect 19 0 10 2;
#X connect 20 0 22 1;
#X connect 21 0 20 0;
#X connect 22 0 26 0;
#X connect 23 0 4 1;
#X connect 24 0 20 1;
#X connect 25 0 24 0;
#X connect 25 0 23 0;
#X connect 26 0 6 0;
#X connect 27 0 8 0;
#X connect 33 0 12 0;
#X connect 34 0 18 0;
#X connect 35 0 16 0;
#X connect 36 0 14 0;
#X connect 37 0 2 0;
#X connect 39 0 45 0;
#X connect 45 0 6 1;
#X restore 1306 540 pd Final Game Hihat;
#X obj 1119 404 loadbang;
#X msg 1270 317 seed 420;
#X obj 1335 431 bng 15 250 50 0 empty empty empty 17 7 0 10 -262144
-1 -1;
#X obj 1356 430 bng 15 250 50 0 empty empty empty 17 7 0 10 -262144
-1 -1;
#X obj 1377 431 bng 15 250 50 0 empty empty empty 17 7 0 10 -262144
-1 -1;
#X obj 1398 431 bng 15 250 50 0 empty empty empty 17 7 0 10 -262144
-1 -1;
#X obj 1419 432 bng 15 250 50 0 empty empty empty 17 7 0 10 -262144
-1 -1;
#X obj 1440 432 bng 15 250 50 0 empty empty empty 17 7 0 10 -262144
-1 -1;
#X obj 1271 341 random 6;
#X floatatom 1269 366 5 0 0 0 - - -;
#X obj 1336 403 select 0 1 2 3 4 5;
#X floatatom 1200 597 5 0 0 0 - - -;
#X floatatom 1201 629 5 0 0 0 - - -;
#X msg 1166 631 72;
#X msg 1165 599 74;
#X msg 1164 569 76;
#X msg 1163 537 79;
#X msg 1161 505 81;
#X msg 1162 467 84;
#X text 1475 463 468 ms per note;
#X msg 1440 496 1 10 \, 0.85 15 10 \, 0 500 25;
#X obj 1192 230 mod 32;
#X obj 1191 259 select 8 9 10 11 12 13 14 15 24 25 26 27 28 29 30 31
;
#X msg 1345 290 0;
#X msg 1380 290 4;
#X msg 1413 290 3;
#X msg 1448 290 2;
#X msg 1481 290 1;
#X msg 1516 290 2;
#X msg 1584 290 0;
#X msg 1549 290 1;
#X text 1145 321 Random Block;
#X text 1562 334 Pre-Authored;
#X text 1170 436 Notes C;
#X text 1176 672 To change octave;
#X text 1178 689 +/- 12 to notes;
#X text 583 619 reccomended 0.377;
#X text 1060 733 reccomended 0.047;
#X text 1420 662 reccomended 0.236;
#X obj 408 523 *~;
#X obj 468 458 vsl 15 128 0 1 0 0 empty empty empty 0 -9 0 10 -262144
-1 -1 12700 1;
#X floatatom 469 600 5 0 0 0 - - -;
#X obj 157 651 dac~;
#X obj 467 724 dac~;
#X msg 497 565 1;
#X msg 653 534 0.291;
#X obj 466 686 *~;
#X obj 532 677 vsl 15 128 0 1 0 0 empty empty empty 0 -9 0 10 -262144
-1 -1 12700 1;
#X floatatom 528 820 5 0 0 0 - - -;
#N canvas 1039 128 626 428 Metro 0;
#X obj 40 49 inlet;
#X obj 39 229 outlet;
#X msg 40 115 1 10;
#X obj 80 146 delay;
#X obj 142 147 delay;
#X msg 80 116 100;
#X msg 142 180 0 14;
#X msg 81 177 0.7 20;
#X msg 142 117 120;
#X connect 0 0 2 0;
#X connect 0 0 5 0;
#X connect 0 0 8 0;
#X connect 2 0 1 0;
#X connect 3 0 7 0;
#X connect 4 0 6 0;
#X connect 5 0 3 0;
#X connect 6 0 1 0;
#X connect 7 0 1 0;
#X connect 8 0 4 0;
#X restore 207 467 pd Metro ADSR;
#N canvas 385 148 450 300 VampADSR 0;
#X obj 41 53 inlet;
#X obj 41 265 outlet;
#X msg 41 95 1 175;
#X obj 112 148 delay;
#X msg 112 120 175;
#X msg 112 176 0.85 200;
#X obj 185 148 delay;
#X obj 257 146 delay;
#X msg 257 118 1675;
#X msg 185 176 0.2 1400;
#X msg 185 120 275;
#X msg 257 174 0 150;
#X connect 0 0 2 0;
#X connect 2 0 1 0;
#X connect 2 0 4 0;
#X connect 2 0 10 0;
#X connect 2 0 8 0;
#X connect 3 0 5 0;
#X connect 4 0 3 0;
#X connect 5 0 1 0;
#X connect 6 0 9 0;
#X connect 7 0 11 0;
#X connect 8 0 7 0;
#X connect 9 0 1 0;
#X connect 10 0 6 0;
#X connect 11 0 1 0;
#X restore 823 454 pd VampADSR;
#N canvas 542 101 450 300 MelodyADSR 0;
#X obj 46 34 inlet;
#X obj 46 160 outlet;
#X obj 99 97 delay;
#X msg 46 72 1 10;
#X obj 163 97 delay;
#X msg 99 73 10;
#X msg 99 123 0.85 15;
#X msg 163 73 25;
#X msg 163 123 0 500;
#X connect 0 0 3 0;
#X connect 0 0 5 0;
#X connect 0 0 7 0;
#X connect 2 0 6 0;
#X connect 3 0 1 0;
#X connect 4 0 8 0;
#X connect 5 0 2 0;
#X connect 6 0 1 0;
#X connect 7 0 4 0;
#X connect 8 0 1 0;
#X restore 1343 504 pd MelodyADSR;
#X msg 117 382 0.3;
#X obj 240 603 r metro @hv_param;
#X text 248 630 volume for metronome;
#X text 249 646 values between 0-1;
#X obj 563 655 r drums @hv_param;
#X text 562 689 values between 0-1;
#X text 564 675 volume for drums;
#X text 1199 785 values between 0-1;
#X text 1201 771 volume for vamp;
#X obj 1200 751 r vamp @hv_param;
#X text 1506 603 values between 0-1;
#X obj 1507 569 r melody @hv_param;
#X text 1508 589 volume for melody;
#X connect 1 0 0 0;
#X connect 2 0 14 0;
#X connect 3 0 4 0;
#X connect 3 0 31 0;
#X connect 3 0 6 0;
#X connect 3 0 39 0;
#X connect 3 0 79 0;
#X connect 3 0 116 0;
#X connect 4 0 3 1;
#X connect 5 0 19 0;
#X connect 5 0 144 0;
#X connect 6 0 5 0;
#X connect 7 0 14 1;
#X connect 8 0 25 0;
#X connect 9 0 30 0;
#X connect 11 0 12 0;
#X connect 12 0 13 1;
#X connect 13 0 137 0;
#X connect 13 0 137 1;
#X connect 14 0 3 0;
#X connect 15 0 7 0;
#X connect 16 0 15 0;
#X connect 18 0 81 0;
#X connect 19 0 18 0;
#X connect 20 0 73 0;
#X connect 20 0 33 0;
#X connect 20 0 147 0;
#X connect 20 0 80 0;
#X connect 22 0 134 0;
#X connect 25 0 22 0;
#X connect 26 0 141 0;
#X connect 28 0 29 0;
#X connect 29 0 26 1;
#X connect 30 0 26 0;
#X connect 31 0 32 0;
#X connect 32 0 8 0;
#X connect 32 1 9 0;
#X connect 33 0 25 0;
#X connect 34 0 49 0;
#X connect 34 0 50 0;
#X connect 34 0 51 0;
#X connect 34 0 52 0;
#X connect 34 0 145 0;
#X connect 35 0 36 0;
#X connect 36 0 48 1;
#X connect 36 0 46 1;
#X connect 36 0 44 1;
#X connect 36 0 42 1;
#X connect 39 0 63 0;
#X connect 42 0 41 0;
#X connect 42 0 41 1;
#X connect 44 0 43 0;
#X connect 44 0 43 1;
#X connect 46 0 45 0;
#X connect 46 0 45 1;
#X connect 48 0 47 0;
#X connect 48 0 47 1;
#X connect 49 0 53 0;
#X connect 50 0 54 0;
#X connect 51 0 55 0;
#X connect 52 0 56 0;
#X connect 53 0 48 0;
#X connect 54 0 46 0;
#X connect 55 0 44 0;
#X connect 56 0 42 0;
#X connect 57 0 52 0;
#X connect 58 0 51 0;
#X connect 59 0 50 0;
#X connect 60 0 49 0;
#X connect 61 0 60 0;
#X connect 61 0 59 0;
#X connect 61 0 58 0;
#X connect 61 0 57 0;
#X connect 61 0 139 0;
#X connect 61 0 140 0;
#X connect 63 0 34 0;
#X connect 63 1 34 0;
#X connect 63 2 70 0;
#X connect 63 3 70 0;
#X connect 64 0 53 0;
#X connect 65 0 54 0;
#X connect 66 0 55 0;
#X connect 67 0 56 0;
#X connect 68 0 67 0;
#X connect 69 0 66 0;
#X connect 70 0 64 0;
#X connect 70 0 65 0;
#X connect 70 0 66 0;
#X connect 70 0 67 0;
#X connect 70 0 145 0;
#X connect 71 0 64 0;
#X connect 72 0 65 0;
#X connect 73 0 19 0;
#X connect 74 0 75 0;
#X connect 75 0 77 0;
#X connect 76 0 75 1;
#X connect 77 0 11 0;
#X connect 78 0 77 1;
#X connect 79 0 74 0;
#X connect 80 0 76 0;
#X connect 81 0 13 0;
#X connect 82 0 83 0;
#X connect 83 0 81 1;
#X connect 84 0 103 0;
#X connect 85 0 86 0;
#X connect 86 0 89 1;
#X connect 89 0 88 0;
#X connect 89 0 88 1;
#X connect 90 0 94 0;
#X connect 91 0 94 0;
#X connect 92 0 94 0;
#X connect 93 0 94 0;
#X connect 94 0 89 0;
#X connect 95 0 113 0;
#X connect 95 0 112 0;
#X connect 95 0 111 0;
#X connect 95 0 110 0;
#X connect 95 0 109 0;
#X connect 95 0 108 0;
#X connect 95 0 71 0;
#X connect 95 0 72 0;
#X connect 95 0 69 0;
#X connect 95 0 68 0;
#X connect 96 0 103 0;
#X connect 97 0 107 0;
#X connect 98 0 106 0;
#X connect 99 0 93 0;
#X connect 100 0 92 0;
#X connect 101 0 91 0;
#X connect 102 0 90 0;
#X connect 103 0 104 0;
#X connect 104 0 105 0;
#X connect 105 0 97 0;
#X connect 105 0 146 0;
#X connect 105 1 98 0;
#X connect 105 1 146 0;
#X connect 105 2 99 0;
#X connect 105 2 146 0;
#X connect 105 3 100 0;
#X connect 105 3 146 0;
#X connect 105 4 101 0;
#X connect 105 4 146 0;
#X connect 105 5 102 0;
#X connect 105 5 146 0;
#X connect 106 0 94 0;
#X connect 107 0 94 0;
#X connect 108 0 107 0;
#X connect 109 0 106 0;
#X connect 110 0 93 0;
#X connect 111 0 92 0;
#X connect 112 0 91 0;
#X connect 113 0 90 0;
#X connect 116 0 117 0;
#X connect 117 0 84 0;
#X connect 117 1 84 0;
#X connect 117 2 84 0;
#X connect 117 3 84 0;
#X connect 117 4 84 0;
#X connect 117 5 84 0;
#X connect 117 6 84 0;
#X connect 117 7 84 0;
#X connect 117 8 118 0;
#X connect 117 9 119 0;
#X connect 117 10 120 0;
#X connect 117 11 121 0;
#X connect 117 12 122 0;
#X connect 117 13 123 0;
#X connect 117 14 125 0;
#X connect 117 15 124 0;
#X connect 118 0 105 0;
#X connect 119 0 105 0;
#X connect 120 0 105 0;
#X connect 121 0 105 0;
#X connect 122 0 105 0;
#X connect 123 0 105 0;
#X connect 124 0 105 0;
#X connect 125 0 105 0;
#X connect 134 0 141 0;
#X connect 135 0 136 0;
#X connect 136 0 134 1;
#X connect 139 0 135 0;
#X connect 140 0 28 0;
#X connect 141 0 138 0;
#X connect 141 0 138 1;
#X connect 142 0 143 0;
#X connect 143 0 141 1;
#X connect 144 0 18 1;
#X connect 145 0 54 1;
#X connect 145 0 55 1;
#X connect 145 0 56 1;
#X connect 145 0 53 1;
#X connect 146 0 94 1;
#X connect 147 0 78 0;
#X connect 148 0 82 0;
#X connect 151 0 142 0;
#X connect 156 0 35 0;
#X connect 158 0 85 0;
