#N canvas 728 417 629 550 10;
#X obj 67 87 lop~ 0.2;
#X obj 68 64 sig~;
#X obj 68 47 hsl 64 12 0.1 1 0 0 empty empty speed 16 6 1 8 #fcfcfc
#000000 #000000 0 1;
#X obj 23 154 +~;
#N canvas 1485 491 654 573 burn 1;
#X obj 0 44 noise~;
#X obj 73 -18 loadbang;
#X msg 102 17 0.6;
#X obj 0 149 clip~ -1 1;
#X obj 32 -52 inlet~;
#X obj 0 214 outlet~;
#X obj 25 17 *~ 150;
#X obj 0 128 *~ 120;
#X obj 0 107 hip~ 120;
#X obj 25 -4 *~;
#X obj 0 65 bp~ 8000 0.5;
#X obj 31 170 *~ 12000;
#X msg 73 17 1;
#X obj 0 86 vcf~ 0 1;
#X obj 0 193 vcf~ 0 0.6;
#X connect 0 0 10 0;
#X connect 1 0 2 0;
#X connect 1 0 12 0;
#X connect 2 0 14 2;
#X connect 3 0 14 0;
#X connect 4 0 9 0;
#X connect 4 0 9 1;
#X connect 4 0 11 0;
#X connect 6 0 13 1;
#X connect 7 0 3 0;
#X connect 8 0 7 0;
#X connect 9 0 6 0;
#X connect 10 0 13 0;
#X connect 11 0 14 1;
#X connect 12 0 13 2;
#X connect 13 0 8 0;
#X connect 14 0 5 0;
#X restore 102 113 pd burn;
#N canvas 121 506 579 660 turbine 1;
#X obj 0 129 osc~;
#X obj 39 128 osc~;
#X obj 78 127 osc~;
#X obj 116 127 osc~;
#X obj 156 129 osc~;
#X obj 0 68 sig~;
#X obj 38 68 sig~;
#X obj 78 67 sig~;
#X obj 116 67 sig~;
#X obj 155 67 sig~;
#X obj 0 97 *~;
#X obj 39 95 *~;
#X obj 79 93 *~;
#X obj 116 91 *~;
#X obj 156 92 *~;
#X obj 19 165 *~ 0.25;
#X obj 137 165 *~ 0.4;
#X obj 13 0 loadbang;
#X obj 77 196 clip~ -0.9 0.9;
#X obj 77 217 outlet~;
#X obj 76 18 inlet~ engine speed;
#X msg 1 43 3097, f 5;
#X msg 41 42 4495, f 5;
#X msg 86 44 5588, f 5;
#X msg 129 44 7471, f 5;
#X msg 179 41 11000;
#X connect 0 0 15 0;
#X connect 1 0 15 0;
#X connect 2 0 18 0;
#X connect 3 0 16 0;
#X connect 4 0 16 0;
#X connect 5 0 10 0;
#X connect 6 0 11 0;
#X connect 7 0 12 0;
#X connect 8 0 13 0;
#X connect 9 0 14 0;
#X connect 10 0 0 0;
#X connect 11 0 1 0;
#X connect 12 0 2 0;
#X connect 13 0 3 0;
#X connect 14 0 4 0;
#X connect 15 0 18 0;
#X connect 16 0 18 0;
#X connect 17 0 21 0;
#X connect 17 0 22 0;
#X connect 17 0 23 0;
#X connect 17 0 24 0;
#X connect 17 0 25 0;
#X connect 18 0 19 0;
#X connect 20 0 14 1;
#X connect 20 0 13 1;
#X connect 20 0 12 1;
#X connect 20 0 11 1;
#X connect 20 0 10 1;
#X connect 21 0 5 0;
#X connect 22 0 6 0;
#X connect 23 0 7 0;
#X connect 24 0 8 0;
#X connect 25 0 9 0;
#X restore 22 114 pd turbine;
#X obj 23 174 lop~ 11000;
#X obj 22 134 *~ 0.5;
#X obj 24 216 dac~;
#X obj 23 194 *~ 0.1;
#X obj 71 15 r sped @hv_param 0 1 0.5;
#X connect 0 0 4 0;
#X connect 0 0 5 0;
#X connect 1 0 0 0;
#X connect 2 0 1 0;
#X connect 3 0 6 0;
#X connect 4 0 3 1;
#X connect 5 0 7 0;
#X connect 6 0 9 0;
#X connect 7 0 3 0;
#X connect 9 0 8 0;
#X connect 9 0 8 1;
#X connect 10 0 2 0;
